<?xml version="1.0" encoding="UTF-8"?>
<svg width="800" height="165" version="1.1" viewBox="0 0 800 165" xmlns="http://www.w3.org/2000/svg">
 <path d="m234 21c-1.181-1.91 4.519-3.1623 22.243-4.8866 10.351-1.0071 25.508-2.9258 33.685-4.2641 8.175-1.3379 15.685-2.4328 16.685-2.4328 6.295 0-9.844 4.5864-24.86 7.0648-11.636 1.9204-47.275 5.2929-47.753 4.5187zm-98.2 33.528c0-1.7158 1.743-4.127 2.983-4.127 1.726 0 2.442 2.267 1.191 3.7745-1.187 1.4292-4.174 1.6817-4.174 0.3525zm75.986-12.811c6.038-5.4466 6.294-9.2454 0.458-6.8069-5.073 2.1197-7.022 4.3967-7.022 8.2052v3.2959l2.3-1.4615c1.265-0.8037 3.183-2.2584 4.264-3.2327zm23.038 3.4483c2.148-3.4049-2.83-6.0942-6.649-3.592-1.711 1.1208-2.042 2.0116-2.042 5.4769v4.1382l3.887-2.2835c2.136-1.2561 4.299-2.9388 4.804-3.7396zm34.514 18.112c1.249-0.3353 1.972-1.3852 2.354-3.4197 0.651-3.47 0.34-3.9467-2.079-3.179-1.471 0.4665-4.17 4.778-4.17 6.6602 0 0.5751 1.617 0.5494 3.895-0.062zm41.103 7.1498-0.25-5.0664-4.542 3.3936c-2.497 1.8665-4.894 3.3937-5.324 3.3937-0.462 0-0.543-1.9694-0.199-4.8093l0.583-4.8093-4.042 3.8762c-7.541 7.2336-8.908 6.9984-8.043-1.3836l0.491-4.757-2.479 1.2817c-1.363 0.7049-4.391 3.0021-6.73 5.1051-2.339 2.1029-4.749 3.8233-5.354 3.8233-0.604 0-1.917-1.0236-2.913-2.275l-1.815-2.2751-4.601 1.4503c-5.041 1.5891-7.307 1.24-7.307-1.1253 0-1.421-0.351-1.3763-4.65 0.5915-3.402 1.5573-5.399 1.9879-7.444 1.6044-3.986-0.748-4.934-2.2538-4.258-6.7651l0.568-3.7909-6.24 3.8514c-3.523 2.1741-7.695 4.0465-9.581 4.2994-3.249 0.4358-3.401 0.3425-5.624-3.4499-1.257-2.1437-2.52-3.7833-2.811-3.6433-0.289 0.1398-5.138 2.6055-10.772 5.4792-8.098 4.1294-10.246 4.9294-10.246 3.8157 0-0.7751 1.175-2.3912 2.613-3.5912 1.785-1.4895 2.615-2.9247 2.615-4.5208 0-2.4077-1.816-6.6169-2.661-6.1709-13.245 6.9809-25.086 12.361-26.771 12.163-2.984-0.351-4.207-3.4133-4.222-10.56l-0.01-6.1304-2.566 0.5635c-2.414 0.5301-2.503 0.4632-1.509-1.1287 1.829-2.9279 4.641-3.691 7.899-2.1441 2.362 1.1204 2.869 1.8222 2.876 3.983 0 1.4427 0.248 4.0689 0.54 5.8363l0.531 3.2132 3.851-0.519c2.117-0.2854 6.912-2.0388 10.653-3.8961 6.537-3.245 6.824-3.5093 7.34-6.7441 1.2-7.5011 5.14-12.185 14.019-16.667 3.821-1.9288 5.265-2.2889 6.51-1.6229 4.47 2.3927 2.398 7.269-5.905 13.893-5.648 4.5078-5.903 4.8597-5.302 7.3501 0.346 1.4386 0.667 3.6548 0.711 4.9249 0.04 1.2703 0.457 2.1719 0.917 2.0039 0.461-0.1681 2.813-0.9554 5.228-1.7493 4.061-1.3354 4.393-1.6424 4.409-4.0949 0.04-5.8661 5.365-12.985 12.119-16.206 3.719-1.7738 6.569-0.885 8.815 2.7503 1.851 2.9942 1.851 3.0017 0.211 5.2288-0.905 1.2267-4.247 4.0165-7.431 6.199-5.997 4.1131-6.211 4.5563-4.414 9.1538 0.787 2.0115 1.113 2.1604 3.099 1.4107 1.221-0.4612 5.549-3.0995 9.618-5.863 8.876-6.03 10.202-5.9826 9.476 0.3395-0.276 2.4053-0.748 5.22-1.049 6.2551-0.458 1.5736-0.224 1.8819 1.424 1.8819 1.084 0 3.559-0.6569 5.499-1.4596 2.637-1.0904 3.893-2.2647 4.965-4.6415 1.871-4.1519 6.122-7.8171 10.395-8.9682 6.255-1.6841 7.987 0.085 5.408 5.5231-1.354 2.8498-1.153 5.4726 0.584 7.645 0.62 0.7749 2.079 0.1486 5.962-2.5572 2.828-1.971 6.254-4.0601 7.616-4.6427 2.158-0.9237 2.614-0.8702 3.555 0.4169 0.593 0.8118 1.08 2.9837 1.08 4.826v3.3499l2.719-2.6219c5.218-5.0348 8.99-5.0549 8.99-0.048 0 2.8579 0.152 2.8676 4.003 0.251 4.79-3.2549 6.003-2.7069 6.841 3.0918l0.448 3.0918 4.562-2.8828c5.648-3.5694 12.119-4.1074 7.775-0.6463-0.806 0.6414-3.346 2.0323-5.646 3.0909-2.301 1.0586-5.992 3.4924-8.205 5.4083-5.525 4.782-6.298 4.5966-6.601-1.583zm136.14 16.304c6.151-3.6908 10.066-7.3682 12.152-11.413 2.881-5.5902 1.57-9.0248-3.445-9.0248-0.996 0-6.383 1.5349-11.975 3.4109-15.83 5.312-22.42 5.2846-28.203-0.1173-1.443-1.3478-2.937-2.2568-3.321-2.0199-0.737 0.4551-3.554 7.6726-4.438 11.364l-0.522 2.1824 8.978 0.4437c9.413 0.4653 17.866 2.873 22.661 6.4538 1.214 0.9071 2.418 1.6612 2.676 1.6757 0.257 0.014 2.703-1.315 5.437-2.9549zm-12.249 6.2583c-4.964-3.316-14.489-6.2362-24.394-7.4788-9.018-1.1313-9.206-1.318-6.58-6.4955 2.366-4.6635 6.614-18.512 7.631-24.876 0.492-3.0923 1.4-6.8255 2.014-8.2959 1.616-3.8656 5.992-8.5466 10.432-11.157 3.285-1.9305 4.807-2.2681 10.23-2.2681 5.881 0 6.92 0.2817 13.485 3.6547 6.752 3.4685 7.272 3.6026 10.22 2.6296 1.906-0.6288 5.096-3.0916 8.256-6.373 4.568-4.7452 8.088-6.7495 8.088-4.6053 0 1.5244-17.504 18.448-19.633 18.982-3.615 0.907-7.559-0.1791-12.169-3.3505-3.608-2.4812-5.084-2.9917-8.648-2.989-4.549 0-8.677 1.9014-11.507 5.2902-1.991 2.3845-2.051 4.2798-0.109 3.4929 4.119-1.6694 6.194-2.2437 6.608-1.829 0.839 0.8378-0.615 2.2462-4.155 4.0255-5.138 2.582-6.426 3.9972-6.426 7.0553 0 2.0414 0.675 3.2919 2.697 4.9924 2.473 2.0802 3.115 2.2285 7.736 1.7832 2.773-0.2671 8.24-1.778 12.15-3.3574 13.649-5.5132 22.319-5.9563 26.901-1.3751 3.588 3.5872 3.31 7.8674-0.85 13.091-6.457 8.112-15.223 15.324-24.031 19.771l-4.253 2.1478zm273.39-36.362c1.484-1.0394 1.859-2.1155 1.859-5.338v-4.036l-3.093 1.0632c-3.334 1.1462-4.283 2.6424-4.376 6.8945-0.05 2.2885 0.243 2.7184 1.847 2.7184 1.048 0 2.741-0.5859 3.763-1.3021zm-66.354 9.7802c3.546-4.6559 3.803-5.2474 2.049-4.7223-3.719 1.1144-5.587 2.8432-10.302 9.5343-3.814 5.4105-7.175 11.996-7.175 14.054 0 0.4749 10.176-11.968 15.428-18.866zm-23.792 28.856c0-8.6201 3.942-18.838 10.259-26.594 3.786-4.6494 4.081-5.7219 1.575-5.7219-0.698 0-2.922-0.8003-4.943-1.7783-3.008-1.457-4.046-1.608-5.739-0.8364-2.852 1.2994-3.664 1.1834-3.651-0.522 0-0.8049 1.229-2.3058 2.718-3.3351 1.491-1.0291 3.67-2.6473 4.846-3.596l2.135-1.7247 4.974 2.6268c4.101 2.1664 5.594 2.5431 8.522 2.149 3.852-0.5184 9.835-3.3095 14.366-6.7026l2.859-2.1414 1.242 1.8664c3.163 4.7535 5.449 6.4666 8.629 6.4666 4 0 7.411-1.5351 7.411-3.334 0-0.7659 2.353-3.283 5.228-5.5937 7.452-5.9898 7.956-6.1955 11.281-4.6101 2.268 1.0817 3.128 1.1445 4.439 0.3252 1.136-0.7089 2.627-0.7919 4.931-0.2745 4.328 0.9724 9.114 0.013 17.696-3.5448 6.593-2.7345 6.866-2.9458 4.558-3.525-1.694-0.4253-3.203-0.187-4.869 0.7698-4.494 2.5789-6.716 1.1418-2.646-1.7115 1.179-0.8266 3.207-2.3479 4.506-3.3807 2.261-1.7956 2.521-1.8225 5.941-0.616 5.357 1.89 6.177 2.792 4.369 4.8014-0.817 0.9071-4.591 3.9082-8.385 6.6689l-6.901 5.0194v4.5028c0 2.4764 0.297 4.5028 0.662 4.5028 0.363 0 3.657-1.8964 7.318-4.214 3.662-2.3175 8.489-4.858 10.728-5.6456 2.24-0.7875 4.173-1.8085 4.297-2.2685 0.123-0.46 0.652-2.4162 1.175-4.3472 1.683-6.2012 7.844-10.552 10.782-7.6134 1.656 1.6561 1.161 3.5672-1.99 7.695l-2.994 3.9207 1.471 4.6759 1.471 4.676 4.741-5.2689c5.351-5.9444 7.067-6.173 7.984-1.0637 1.086 6.0412 1.427 5.9368 8.138-2.4939 3.49-4.3835 6.836-8.2875 7.437-8.6754 1.226-0.7923 15.715-0.9837 15.724-0.208 0.01 1.2556-3.196 3.1683-5.849 3.4852l-2.927 0.3497 3.136 0.134c3.252 0.1388 4.228 1.3754 1.673 2.1208-0.806 0.2348-3.347 0.653-5.646 0.9296-9.849 1.1837-9.196 0.8051-16 9.2659-7.08 8.802-7.947 9.0112-9.631 2.3236-0.507-2.0137-1.202-3.8348-1.546-4.0471-0.344-0.2121-2.423 1.9584-4.62 4.8236-3.747 4.8836-8.552 9.7364-9.692 9.7872-0.277 0.013-0.326-1.8287-0.109-4.091 0.218-2.2626-0.05-5.9788-0.599-8.2585l-0.994-4.1445-12.421 6.3763c-10.73 5.508-12.484 6.6896-12.885 8.6764-0.545 2.6939-3.017 3.1619-3.017 0.571 0-1.4293-0.326-1.6158-1.881-1.0754-1.035 0.3596-3.2 0.6673-4.809 0.6837-2.853 0.029-2.934-0.062-3.186-3.5284-0.231-3.1852-0.421-3.4707-1.82-2.7214-0.862 0.4602-2.118 0.6248-2.793 0.3656-1.544-0.5924-2.336-4.4694-1.306-6.3936 0.616-1.1494 0.375-1.553-1.156-1.9373-2.686-0.674-5.412 0.5118-16.728 7.2726-11.201 6.6936-14.712 7.6166-19.963 5.2488-3.244-1.4629-3.438-1.4654-4.228-0.056-1.269 2.269-7.808 10.174-15.305 18.507-3.726 4.1401-8.769 10.068-11.206 13.173-4.987 6.3556-6.787 7.1066-6.787 2.8325zm-144.46 23.754c-2.992-1.2806-3.157-4.3553-0.662-12.359 2.64-8.4677 7.526-18.144 15.103-29.911 2.961-4.6001 5.387-9.0227 5.391-9.8277 0.01-2.1068-3.243-1.877-9.256 0.6537-7.538 3.1724-8.244 2.1363-3.571-5.2377 12.545-19.796 28.355-35.067 34.611-33.431 0.904 0.2362 1.643 0.088 1.643-0.3287 0-0.4171 0.752-0.7581 1.673-0.7581 3.122 0 1.624 5.1783-1.566 5.4133-0.945 0.07-2.392 0.6951-3.213 1.3898-0.822 0.6948-4.505 3.0953-8.187 5.3343-6.873 4.1823-15.563 12.274-18.236 16.982l-1.51 2.6575 2.192-0.8329c1.204-0.4582 4.278-0.8329 6.829-0.8329h4.639l-0.568 3.1365c-0.867 4.7712-3.9 10.889-9.629 19.408-6.661 9.9061-12.771 22.507-12.895 26.594l-0.09 3.1365 5.462-0.056c4.378-0.045 6.347-0.539 9.928-2.4876 8.742-4.7586 12.716-10.77 26.418-39.965 2.437-5.1914 3.96-6.3936 6.274-4.949 1.202 0.7506 1.659 0.4402 2.763-1.8759 0.728-1.5263 2.665-3.7976 4.303-5.0474 3.123-2.3814 8.804-4.7044 9.88-4.0393 0.346 0.214 0.629 1.9015 0.629 3.7498 0 3.5543-1.406 5.4358-7.465 9.9825-3.578 2.6856-3.138 4.9591 0.963 4.9591 2.023 0 3.965-0.9961 7.34-3.7638 2.523-2.0701 4.85-3.7637 5.17-3.7637 0.319 0 0.815 1.7878 1.102 3.9728 0.796 6.0815 1.77 7.9676 3.608 6.9841 2.901-1.5531 17.324-17.364 22.25-24.391 9.737-13.894 19.312-26.348 22.628-29.432 4.123-3.837 7.972-4.3587 7.972-1.0807 0 1.987-10.65 16.155-21.472 28.566-4.208 4.8265-4.457 5.3625-4.444 9.6188 0.02 7.457 0.663 7.4241 8.067-0.4134 5.585-5.9091 7.229-7.1649 9.968-7.6085 1.804-0.2923 4.182-0.7187 5.284-0.9475 1.1-0.2289 4.332-2.6537 7.181-5.3886 5.024-4.8252 7.117-5.7463 9.554-4.2042 1.619 1.0261-1.833 6.7928-6.992 11.677-6.905 6.5371-10.222 12.421-16.079 28.517-1.585 4.3579-3.278 8.4014-3.763 8.9856-0.575 0.6928-1.956 0.8904-3.97 0.5684-2.261-0.3617-5.139 0.2163-10.749 2.1584-7.202 2.494-11.088 2.9918-11.155 1.4297-0.05-1.211 12.822-15.629 13.955-15.629 0.603 0 1.314 0.3517 1.58 0.7815 0.265 0.4296 1.792 0.5686 3.395 0.3087 2.515-0.4082 2.911-0.2438 2.911 1.2072 0 0.924-0.563 2.1484-1.254 2.721-1.917 1.5912-1.498 2.65 0.933 2.3557 1.949-0.2359 2.8-1.6442 7.87-13.02 6.287-14.107 6.397-13.455-1.969-11.727-4.446 0.9182-5.384 1.498-8.776 5.4287-3.385 3.9195-9.016 8.5987-10.35 8.5987-1.009 0-1.831-3.0914-2.29-8.6138l-0.473-5.6863-10.037 9.901c-7.896 7.7886-10.808 10.128-13.653 10.966-4.597 1.3538-5.829 0.4421-6.169-4.5642l-0.252-3.7194-4.6 2.882c-9.261 5.8025-12.547 4.7631-12.547-3.9712 0-3.0052-0.302-4.7337-0.747-4.2614-0.41 0.4369-4.355 7.4822-8.762 15.656-4.407 8.1739-9.492 17.039-11.298 19.7-3.876 5.7059-12.289 13.724-16.834 16.043-3.765 1.921-11.321 2.8405-13.981 1.7018zm-455.1 27.227c1.523-2.2577 1.359-2.1821-1.294 0.5997-3.084 3.2338-4.097 5.0123-1.741 3.0576 0.712-0.5906 2.077-2.2363 3.035-3.6573zm-8.042 8.1222c-0.327-0.8552 0.136-2.2727 1.162-3.5548 0.939-1.1729 2.455-3.5157 3.369-5.2068 0.914-1.6908 3.562-4.6758 5.883-6.6334 2.83-2.3867 6.603-7.298 11.45-14.908 16.915-26.556 40.091-59.759 48.991-70.186 2.031-2.3787 4.17-5.9215 4.753-7.8733 2.304-7.7046 8.625-18.093 16.535-27.177 2.504-2.8752 5.085-5.2276 5.737-5.2276 2.263 0 1.162 2.5146-2.655 6.0562-2.111 1.9594-5.337 5.7456-7.169 8.4134-3.353 4.8859-5.148 10.623-3.32 10.623 1.36 0 1.164 2.1228-0.309 3.3456-1.356 1.1251-1.652 10.338-0.565 17.555l0.565 3.7536 8.8-10.863c6.882-8.4962 9.296-10.921 11.082-11.128l2.282-0.2647v16.622l10.246-10.619c5.636-5.8405 12.881-13.456 16.101-16.924 5.812-6.2585 13.471-11.527 16.779-11.542 0.95 0 2.59 0.7977 3.646 1.782 2.525 2.3523 1.923 6.4814-1.623 11.138-1.417 1.8603-3.538 5.4526-4.713 7.9827-1.176 2.5302-3.175 6.8585-4.444 9.6187-1.267 2.7601-4.66 7.6532-7.536 10.873-7.349 8.2254-7.666 9.1165-4.249 11.969 3.354 2.8004 3.275 5.4634-0.175 5.8613-3.066 0.3536-7.306-3.7704-7.3-7.1014 0-3.5257 3.164-8.0866 8.705-12.579 5.201-4.2158 6.051-5.5656 13.029-20.66 4.721-10.215 4.802-12.202 0.496-12.202-3.519 0-8.229 3.3922-13.534 9.7486-2.243 2.6887-7.502 8.296-11.685 12.46-4.185 4.1645-10.159 11.198-13.28 15.63-8.426 11.971-9.294 11.728-9.034-2.5386 0.109-6.0046-0.128-9.2632-0.649-8.941-0.452 0.2788-5.242 6.1839-10.646 13.122l-9.826 12.615-0.584-9.2444c-0.321-5.0844-0.914-10.502-1.317-12.039l-0.732-2.7941-10.271 13.801c-8.857 11.904-33.618 48.39-39.332 57.961l-1.898 3.1756 2.185-0.5479c1.643-0.4128 2.183-0.2307 2.183 0.7376 0 1.3967-2.172 3.914-3.377 3.914-1.734 0-7.107 5.7845-11.335 12.206-6.353 9.6453-11.055 13.352-12.421 9.7911z"/>
</svg>
